<svg width="20" height="21" viewBox="0 0 20 21" fill="none" xmlns="http://www.w3.org/2000/svg">
<g id="bell-01">
<path id="Icon" d="M7.7952 18C8.38281 18.5186 9.15468 18.8333 10.0001 18.8333C10.8454 18.8333 11.6173 18.5186 12.2049 18M15.0001 7.16666C15.0001 5.84058 14.4733 4.56881 13.5356 3.63113C12.5979 2.69345 11.3261 2.16666 10.0001 2.16666C8.67397 2.16666 7.4022 2.69345 6.46452 3.63113C5.52684 4.56881 5.00006 5.84058 5.00006 7.16666C5.00006 9.74182 4.35045 11.505 3.62478 12.6712C3.01266 13.6549 2.7066 14.1468 2.71783 14.284C2.73025 14.4359 2.76244 14.4938 2.88487 14.5846C2.99544 14.6667 3.49388 14.6667 4.49077 14.6667H15.5093C16.5062 14.6667 17.0047 14.6667 17.1152 14.5846C17.2377 14.4938 17.2699 14.4359 17.2823 14.284C17.2935 14.1468 16.9875 13.6549 16.3753 12.6712C15.6497 11.505 15.0001 9.74182 15.0001 7.16666Z" stroke="#667085" stroke-width="1.66667" stroke-linecap="round" stroke-linejoin="round"/>
</g>
</svg>
